<?xml version="1.0" encoding="UTF-8" standalone="no"?>
<svg
   id="Layer_1"
   viewBox="0 0 1000 525"
   version="1.1"
   sodipodi:docname="ASF_short-horizontal-white.svg"
   inkscape:version="1.3.2 (091e20e, 2023-11-25)"
   xmlns:inkscape="http://www.inkscape.org/namespaces/inkscape"
   xmlns:sodipodi="http://sodipodi.sourceforge.net/DTD/sodipodi-0.dtd"
   xmlns="http://www.w3.org/2000/svg"
   xmlns:svg="http://www.w3.org/2000/svg">
  <sodipodi:namedview
     id="namedview13"
     pagecolor="#ffffff"
     bordercolor="#000000"
     borderopacity="0.25"
     inkscape:showpageshadow="2"
     inkscape:pageopacity="0.0"
     inkscape:pagecheckerboard="0"
     inkscape:deskcolor="#d1d1d1"
     inkscape:zoom="0.44952381"
     inkscape:cx="499.41737"
     inkscape:cy="262.5"
     inkscape:window-width="1312"
     inkscape:window-height="829"
     inkscape:window-x="35"
     inkscape:window-y="43"
     inkscape:window-maximized="0"
     inkscape:current-layer="Layer_1" />
  <defs
     id="defs1">
    <style
       id="style1">
      .cls-1 {
        fill: #7c297d;
      }

      .cls-2 {
        fill: #f79a23;
      }

      .cls-3 {
        fill: #dd552c;
      }

      .cls-4 {
        fill: #d22128;
      }
    </style>
  </defs>
  <g
     id="g3"
     style="fill:#ffffff;fill-opacity:1">
    <path
       class="cls-1"
       d="m 458.80418,181.74548 h 49.04516 l 87.41281,220.09393 H 541.8073 l -14.7775,-38.0445 h -87.40608 l -15.09392,38.0445 h -53.13843 z m 55.64959,142.74598 -31.12364,-80.49195 -30.81396,80.49195 z"
       id="path1"
       style="fill:#ffffff;fill-opacity:1" />
    <path
       class="cls-1"
       d="m 622.71667,331.72201 h 48.73547 c 0.31642,21.06551 16.03645,33.33185 40.24597,33.33185 20.7491,0 33.95797,-8.48949 33.95797,-23.26699 0,-15.41035 -14.1514,-24.52595 -45.27504,-31.4468 -51.56979,-10.69097 -76.09574,-32.06618 -76.09574,-68.22562 0,-39.92956 31.75649,-64.77192 82.38375,-64.77192 52.18916,0 85.52102,28.29606 85.52102,72.62857 h -48.10936 c 0,-19.80657 -13.83498,-31.75649 -36.78555,-31.75649 -21.06552,0 -33.95797,8.80591 -33.95797,23.267 0,13.52529 11.6335,22.01478 45.27505,29.87143 54.71379,12.89245 77.66437,33.64154 77.66437,68.54204 0,41.50492 -32.07291,66.34729 -84.26208,66.34729 -55.3399,0 -89.29786,-28.9289 -89.29786,-74.52036 z"
       id="path2"
       style="fill:#ffffff;fill-opacity:1" />
    <path
       class="cls-1"
       d="m 852.90912,181.74548 h 137.71692 v 45.27504 h -87.7225 v 55.02349 h 79.85911 v 44.02282 h -79.85911 v 75.77258 h -49.99442 z"
       id="path3"
       style="fill:#ffffff;fill-opacity:1" />
  </g>
  <g
     id="g10">
    <path
       class="cls-3"
       d="m 141.10772,209.8881 c 13.18698,-32.60813 27.90053,-65.1523 43.68789,-93.99705 -23.56659,-17.504102 -46.19569,-55.249012 -55.49307,-71.972166 -3.33924,3.793679 -5.50706,8.162973 -6.48998,11.717653 -8.75878,31.625206 22.4204,69.814453 -2.69294,55.861663 C 99.195483,99.871431 52.079144,74.40969 34.10714,99.716587 54.235178,125.5789 106.88046,190.64705 141.10772,209.8881 Z"
       id="path4" />
    <path
       class="cls-2"
       d="m 184.79561,115.89105 c 15.29758,-27.94934 31.59996,-52.428158 48.50152,-70.063545 0,0 -16.8578,24.401397 -40.93604,73.180625 14.58226,4.01585 56.11244,12.25624 113.96014,-2.68621 1.42221,-10.51256 -5.64508,-22.075366 -40.86367,-25.946466 -22.99266,-2.524631 27.59758,-54.9023 -9.05165,-79.673976 C 255.2227,9.9003286 254.05969,9.193432 252.92024,8.5605912 251.69159,8.1196224 250.39393,7.7156815 249.00875,7.3555009 206.20616,-3.8134649 200.27328,68.764616 183.19331,53.162399 155.59237,27.949754 138.17073,33.840559 129.30254,43.918885 c 9.29738,16.723153 31.92648,54.468063 55.49307,71.972165 z"
       id="path5" />
    <path
       class="cls-4"
       d="m 106.68185,303.83802 c 9.66261,-28.94573 21.28601,-61.46634 34.42587,-93.94992 C 106.88046,190.64705 54.235178,125.5789 34.10714,99.716587 c -3.593391,5.055993 -6.049015,12.108133 -6.866995,21.752213 -4.389491,51.80206 49.051889,90.15288 38.397948,97.15789 -14.092488,9.26708 -42.141134,-22.26051 -53.19565,-2.22841 16.022989,20.58416 48.661414,57.77701 94.239407,87.43974 z"
       id="path6" />
    <path
       class="cls-3"
       d="m 254.75649,192.11807 c -27.05899,-9.65082 28.27586,-35.53334 46.2445,-62.99122 2.2991,-3.51092 4.67562,-8.04852 5.32024,-12.80493 -57.8477,14.94245 -99.37788,6.70206 -113.96014,2.68621 -12.46495,25.25641 -26.85871,57.08358 -41.87016,95.45797 15.63419,6.68522 79.47032,31.37947 169.63666,31.50739 15.15957,-39.48523 -39.69056,-44.69943 -65.3711,-53.85542 z"
       id="path7" />
    <path
       class="cls-4"
       d="m 117.13719,309.04886 c 15.90013,4.95501 68.58412,19.75607 124.53666,17.52767 7.51667,-20.35189 -20.58583,-22.33793 -22.87483,-38.66051 -1.77229,-12.62989 73.95653,10.61354 98.32258,-35.31117 1.23202,-2.32266 2.19306,-4.51404 3.00599,-6.63136 -90.16634,-0.12792 -154.00247,-24.82217 -169.63666,-31.50739 -10.97036,28.04359 -22.25546,59.51732 -33.35374,94.58276 z"
       id="path8" />
    <path
       class="cls-1"
       d="m 117.13719,309.04886 c -7.1447,22.5702 -14.19347,46.6821 -21.035221,72.16404 -2.427011,9.03481 -4.82541,18.23793 -7.190148,27.64302 53.106449,17.53104 102.008539,0.0404 103.666379,-21.63776 0.0135,-0.17168 -0.0185,-0.29959 -0.008,-0.46454 1.264,-22.96067 -33.15008,-10.23317 -32.33547,-24.03785 0.81798,-13.90566 60.08116,-0.0808 78.40829,-29.89499 1.40538,-2.28563 2.32098,-4.31543 3.03124,-6.24425 -55.95254,2.22841 -108.63653,-12.57266 -124.53666,-17.52767 z"
       id="path9" />
    <path
       class="cls-1"
       d="m 12.442443,216.39828 c -0.77422,1.4037 -1.472701,3.02619 -2.068514,4.96511 -10.2920772,33.44967 62.484608,78.38473 52.583007,88.1803 -8.925411,8.82611 -20.557226,-11.34401 -34.900494,-3.01273 -1.572003,0.9156 -3.16757,2.0702 -4.805213,3.74992 -16.2215937,16.6188 -0.254147,64.4959 45.769869,90.05189 -10.739778,36.06182 -21.43243,76.35156 -31.899549,118.48596 3.797044,-1.32964 8.34138,-2.66264 9.472414,-6.24425 1.698235,-6.98144 12.193966,-49.46256 29.235223,-107.09483 0,0 3.110345,-11.80517 8.804228,-31.25493 5.264697,-17.98547 12.746019,-42.51478 22.048436,-70.3867 C 61.103857,274.17529 28.465432,236.98244 12.442443,216.39828 Z"
       id="path10" />
  </g>
  <g
     id="g13"
     style="fill:#ffffff;fill-opacity:1">
    <polygon
       class="cls-1"
       points="404.1671788 144.7351535 413.43089 144.7351535 413.43089 82.5349876 436.7786739 82.5349876 436.7786739 73.4732468 380.8193949 73.4732468 380.8193949 82.5349876 404.1671788 82.5349876 404.1671788 144.7351535"
       id="polygon11"
       style="fill:#ffffff;fill-opacity:1" />
    <polygon
       class="cls-1"
       points="464.8525663 112.9584696 501.321697 112.9584696 501.321697 144.7351535 510.6796611 144.7351535 510.6796611 73.4732468 501.321697 73.4732468 501.321697 103.8899964 464.8525663 103.8899964 464.8525663 73.4732468 455.5955874 73.4732468 455.5955874 144.7351535 464.8525663 144.7351535 464.8525663 112.9584696"
       id="polygon12"
       style="fill:#ffffff;fill-opacity:1" />
    <polygon
       class="cls-1"
       points="581.40298 135.9629037 546.2331925 135.9629037 546.2331925 112.8574844 577.8213707 112.8574844 577.8213707 104.0852345 546.2331925 104.0852345 546.2331925 82.1512438 580.3392689 82.1512438 580.3392689 73.4732468 536.9762136 73.4732468 536.9762136 144.7351535 581.40298 144.7351535 581.40298 135.9629037"
       id="polygon13"
       style="fill:#ffffff;fill-opacity:1" />
  </g>
</svg>
